{"title":"Contraband 2012 DVDRip XViD-NYDIC","uid":7172261,"size":504133351,"categoryP":"video","categoryS":"movies","magnet":"?xt=urn:btih:f4bcd7b9babc8f9efb052addb6efc76a5dd97777&amp;dn=Contraband+2012+DVDRip+XViD-NYDIC&amp;tr=udp%3A%2F%2Ftracker.openbittorrent.com%3A80&amp;tr=udp%3A%2F%2Fopen.demonii.com%3A1337&amp;tr=udp%3A%2F%2Ftracker.coppersurfer.tk%3A6969&amp;tr=udp%3A%2F%2Fexodus.desync.com%3A6969","seeders":0,"leechers":0,"uploader":"BLOVES","files":8,"time":1334001239,"description":"Format : Matroska \nFormat version : Version 2 \nFile size : 481 MiB \nDuration : 1h 49mn \nOverall bit rate : 613 Kbps \nWriting application : Lavf51.12.1 \nWriting library : Lavf51.12.1 \n\nVideo \nID : 1 \nFormat : AVC \nFormat/Info : Advanced Video Codec \nFormat profile : &lt;a class=&quot;__cf_email__&quot; href=&quot;/cdn-cgi/l/email-protection&quot; data-cfemail=&quot;ecae8d9f8980858289aca0dfc2dc&quot;&gt;[email&amp;#160;protected]&lt;/a&gt;&lt;script cf-hash='f9e31' type=&quot;text/javascript&quot;&gt;\n/* &lt;![CDATA[ */!function(){try{var t=&quot;currentScript&quot;in document?document.currentScript:function(){for(var t=document.getElementsByTagName(&quot;script&quot;),e=t.length;e--;)if(t[e].getAttribute(&quot;cf-hash&quot;))return t[e]}();if(t&amp;&amp;t.previousSibling){var e,r,n,i,c=t.previousSibling,a=c.getAttribute(&quot;data-cfemail&quot;);if(a){for(e=&quot;&quot;,r=parseInt(a.substr(0,2),16),n=2;a.length-n;n+=2)i=parseInt(a.substr(n,2),16)^r,e+=String.fromCharCode(i);e=document.createTextNode(e),c.parentNode.replaceChild(e,c)}}}catch(u){}}();/* ]]&gt; */&lt;/script&gt; \nFormat settings, CABAC : No \nFormat settings, ReFrames : 1 frame \nFormat settings, GOP : M=1, N=12 \nCodec ID : V_MPEG4/ISO/AVC \nDuration : 1h 49mn \nBit rate : 489 Kbps \nWidth : 720 pixels \nHeight : 480 pixels \nDisplay aspect ratio : 2.35:1 \nOriginal display aspect ratio : 2.35:1 \nFrame rate mode : Variable \nFrame rate : 29.970 fps \nStandard : NTSC \nColor space : YUV \nChroma subsampling : 4:2:0 \nBit depth : 8 bits \nScan type : Progressive \nBits/(Pixel*Frame) : 0.047 \nStream size : 383 MiB (80%) \nDefault : Yes \nForced : No \n\nAudio \nID : 2 \nFormat : MPEG Audio \nFormat version : Version 1 \nFormat profile : Layer 2 \nCodec ID : A_MPEG/L2 \nCodec ID/Hint : MP2 \nDuration : 1h 49mn \nBit rate mode : Constant \nBit rate : 112 Kbps \nChannel(s) : 2 channels \nSampling rate : 44.1 KHz \nCompression mode : Lossy \nStream size : 87.8 MiB (18%) \nDefault : Yes \nForced : No \n","torrent":{"xt":"urn:btih:f4bcd7b9babc8f9efb052addb6efc76a5dd97777","amp;dn":"Contraband+2012+DVDRip+XViD-NYDIC","amp;tr":["udp%3A%2F%2Ftracker.openbittorrent.com%3A80","udp%3A%2F%2Fopen.demonii.com%3A1337","udp%3A%2F%2Ftracker.coppersurfer.tk%3A6969","udp%3A%2F%2Fexodus.desync.com%3A6969"],"infoHash":"f4bcd7b9babc8f9efb052addb6efc76a5dd97777","infoHashBuffer":{"type":"Buffer","data":[244,188,215,185,186,188,143,158,251,5,42,221,182,239,199,106,93,217,119,119]},"announce":[],"urlList":[]}}